<svg xmlns="http://www.w3.org/2000/svg" xmlns:xlink="http://www.w3.org/1999/xlink" width="500" zoomAndPan="magnify" viewBox="0 0 375 374.999991" height="500" preserveAspectRatio="xMidYMid meet" version="1.0"><defs><g/><clipPath id="5d4d58e56a"><path d="M 8.683594 9.335938 L 366.40625 9.335938 L 366.40625 365.664062 L 8.683594 365.664062 Z M 8.683594 9.335938 " clip-rule="nonzero"/></clipPath><clipPath id="1c0be3dfa9"><path d="M 187.5 9.335938 C 88.742188 9.335938 8.683594 89.101562 8.683594 187.5 C 8.683594 285.898438 88.742188 365.664062 187.5 365.664062 C 286.257812 365.664062 366.316406 285.898438 366.316406 187.5 C 366.316406 89.101562 286.257812 9.335938 187.5 9.335938 Z M 187.5 9.335938 " clip-rule="nonzero"/></clipPath><clipPath id="e7b4fb7701"><path d="M 163 17.824219 L 213 17.824219 L 213 65 L 163 65 Z M 163 17.824219 " clip-rule="nonzero"/></clipPath><clipPath id="9a5cc50ef5"><path d="M 308 164 L 357.703125 164 L 357.703125 211 L 308 211 Z M 308 164 " clip-rule="nonzero"/></clipPath><clipPath id="9a97f5db49"><path d="M 163 310 L 212 310 L 212 356.824219 L 163 356.824219 Z M 163 310 " clip-rule="nonzero"/></clipPath><clipPath id="c754bfd1e5"><path d="M 17.203125 163 L 66 163 L 66 210 L 17.203125 210 Z M 17.203125 163 " clip-rule="nonzero"/></clipPath></defs><g clip-path="url(#5d4d58e56a)"><g clip-path="url(#1c0be3dfa9)"><path fill="#003399" d="M 8.683594 9.335938 L 366.40625 9.335938 L 366.40625 365.664062 L 8.683594 365.664062 Z M 8.683594 9.335938 " fill-opacity="1" fill-rule="nonzero"/></g></g><g clip-path="url(#e7b4fb7701)"><path fill="#fcde00" d="M 203.054688 63.960938 L 187.988281 53.214844 L 173 64.066406 L 178.574219 46.429688 L 163.613281 35.539062 L 182.125 35.386719 L 187.867188 17.800781 L 193.730469 35.347656 L 212.242188 35.367188 L 197.355469 46.363281 Z M 203.054688 63.960938 " fill-opacity="1" fill-rule="evenodd"/></g><path fill="#fcde00" d="M 129.25 83.886719 L 114.183594 73.140625 L 99.195312 83.992188 L 104.769531 66.355469 L 89.808594 55.464844 L 108.320312 55.3125 L 114.0625 37.730469 L 119.925781 55.273438 L 138.4375 55.296875 L 123.550781 66.289062 Z M 129.25 83.886719 " fill-opacity="1" fill-rule="evenodd"/><path fill="#fcde00" d="M 275.046875 83.453125 L 259.980469 72.707031 L 244.992188 83.558594 L 250.566406 65.921875 L 235.605469 55.03125 L 254.117188 54.878906 L 259.859375 37.296875 L 265.722656 54.839844 L 284.234375 54.863281 L 269.347656 65.855469 Z M 275.046875 83.453125 " fill-opacity="1" fill-rule="evenodd"/><path fill="#fcde00" d="M 328.476562 137.71875 L 313.410156 126.972656 L 298.421875 137.824219 L 303.996094 120.1875 L 289.035156 109.296875 L 307.546875 109.144531 L 313.289062 91.5625 L 319.152344 109.105469 L 337.664062 109.128906 L 322.777344 120.121094 Z M 328.476562 137.71875 " fill-opacity="1" fill-rule="evenodd"/><g clip-path="url(#9a5cc50ef5)"><path fill="#fcde00" d="M 348.394531 210.558594 L 333.328125 199.808594 L 318.339844 210.664062 L 323.914062 193.027344 L 308.953125 182.136719 L 327.464844 181.984375 L 333.203125 164.398438 L 339.070312 181.941406 L 357.582031 181.964844 L 342.695312 192.960938 Z M 348.394531 210.558594 " fill-opacity="1" fill-rule="evenodd"/></g><path fill="#fcde00" d="M 328.476562 283.851562 L 313.410156 273.105469 L 298.421875 283.957031 L 303.996094 266.320312 L 289.035156 255.429688 L 307.546875 255.277344 L 313.289062 237.695312 L 319.152344 255.238281 L 337.664062 255.261719 L 322.777344 266.253906 Z M 328.476562 283.851562 " fill-opacity="1" fill-rule="evenodd"/><path fill="#fcde00" d="M 274.59375 337.234375 L 259.527344 326.488281 L 244.539062 337.339844 L 250.113281 319.703125 L 235.152344 308.8125 L 253.664062 308.660156 L 259.402344 291.074219 L 265.269531 308.617188 L 283.78125 308.640625 L 268.894531 319.636719 Z M 274.59375 337.234375 " fill-opacity="1" fill-rule="evenodd"/><g clip-path="url(#9a97f5db49)"><path fill="#fcde00" d="M 202.601562 356.691406 L 187.535156 345.941406 L 172.546875 356.796875 L 178.121094 339.160156 L 163.160156 328.269531 L 181.671875 328.117188 L 187.410156 310.53125 L 193.277344 328.074219 L 211.789062 328.097656 L 196.902344 339.09375 Z M 202.601562 356.691406 " fill-opacity="1" fill-rule="evenodd"/></g><path fill="#fcde00" d="M 128.796875 336.78125 L 113.734375 326.035156 L 98.742188 336.886719 L 104.316406 319.25 L 89.355469 308.359375 L 107.867188 308.207031 L 113.609375 290.625 L 119.472656 308.167969 L 137.984375 308.191406 L 123.097656 319.183594 Z M 128.796875 336.78125 " fill-opacity="1" fill-rule="evenodd"/><path fill="#fcde00" d="M 76.269531 283.402344 L 61.207031 272.652344 L 46.21875 283.507812 L 51.792969 265.871094 L 36.832031 254.976562 L 55.339844 254.828125 L 61.082031 237.242188 L 66.949219 254.785156 L 85.457031 254.808594 L 70.574219 265.804688 Z M 76.269531 283.402344 " fill-opacity="1" fill-rule="evenodd"/><g clip-path="url(#c754bfd1e5)"><path fill="#fcde00" d="M 56.804688 209.65625 L 41.742188 198.90625 L 26.753906 209.761719 L 32.328125 192.121094 L 17.363281 181.230469 L 35.875 181.078125 L 41.617188 163.496094 L 47.480469 181.039062 L 65.992188 181.0625 L 51.109375 192.054688 Z M 56.804688 209.65625 " fill-opacity="1" fill-rule="evenodd"/></g><path fill="#fcde00" d="M 77.632812 135.90625 L 62.570312 125.160156 L 47.582031 136.011719 L 53.15625 118.375 L 38.191406 107.484375 L 56.703125 107.332031 L 62.445312 89.75 L 68.308594 107.292969 L 86.820312 107.316406 L 71.9375 118.308594 Z M 77.632812 135.90625 " fill-opacity="1" fill-rule="evenodd"/><g fill="#ffffff" fill-opacity="1"><g transform="translate(107.689817, 235.382361)"><g><path d="M 67.265625 0 L 60.65625 -21.6875 L 27.421875 -21.6875 L 20.828125 0 L 0 0 L 32.171875 -91.515625 L 55.796875 -91.515625 L 88.09375 0 Z M 56.046875 -37.90625 C 49.929688 -57.5625 46.488281 -68.675781 45.71875 -71.25 C 44.957031 -73.832031 44.410156 -75.867188 44.078125 -77.359375 C 42.703125 -72.046875 38.773438 -58.894531 32.296875 -37.90625 Z M 56.046875 -37.90625 "/></g></g></g><g fill="#ffffff" fill-opacity="1"><g transform="translate(195.777294, 235.382361)"><g><path d="M 63.953125 0 L 11.46875 0 L 11.46875 -91.140625 L 63.953125 -91.140625 L 63.953125 -75.3125 L 30.796875 -75.3125 L 30.796875 -55.296875 L 61.65625 -55.296875 L 61.65625 -39.46875 L 30.796875 -39.46875 L 30.796875 -15.953125 L 63.953125 -15.953125 Z M 63.953125 0 "/></g></g></g></svg>